<svg width="193" height="52" viewBox="0 0 193 52" fill="none" xmlns="http://www.w3.org/2000/svg">
<path d="M3.28125 43H7.5V27.6016H26.0625V43H30.2812V9.17969H26.0625V23.8047H7.5V9.17969H3.28125V43ZM38.5078 14.5C39.9375 14.5 41.0625 13.3516 41.0625 11.9453C41.0625 10.5156 39.9375 9.39062 38.5078 9.39062C37.1016 9.39062 35.9531 10.5156 35.9531 11.9453C35.9531 13.3516 37.1016 14.5 38.5078 14.5ZM36.4688 43H40.5469V18.625H36.4688V43ZM57.7969 43.5625C65.5312 43.5625 70.2891 39.7656 70.2891 33.7656V33.7422C70.2891 28.5859 67.3828 25.7734 60.4453 24.25L56.6953 23.4297C52.2891 22.4688 50.25 20.7344 50.25 17.9688V17.9453C50.25 14.6875 53.2031 12.5312 57.7266 12.5078C62.0156 12.5078 64.8984 14.5469 65.4141 17.9922L65.4609 18.3203H69.6797L69.6562 17.9688C69.2812 12.4375 64.4531 8.61719 57.8438 8.61719C50.8828 8.61719 45.9609 12.5078 45.9375 18.0625V18.0859C45.9375 23.0312 49.0312 26.0078 55.6406 27.4609L59.3906 28.2812C64.0312 29.3125 65.9766 30.9766 65.9766 33.9531V33.9766C65.9766 37.4688 62.9062 39.6719 58.0312 39.6719C53.1328 39.6719 49.8516 37.5859 49.3594 34.1875L49.3125 33.8594H45.0938L45.1172 34.1875C45.5391 39.9766 50.4844 43.5625 57.7969 43.5625ZM84.6328 43.4688C89.9531 43.4688 93.9375 40.2812 94.7344 36.25L94.7812 36.0156H90.7734L90.7031 36.2266C90 38.3125 87.8203 39.8594 84.7266 39.8594C80.3906 39.8594 77.625 36.9297 77.5312 31.9141H95.0859V30.4141C95.0859 23.1016 91.0312 18.1562 84.375 18.1562C77.7188 18.1562 73.4062 23.3359 73.4062 30.8828V30.9062C73.4062 38.5703 77.625 43.4688 84.6328 43.4688ZM84.3516 21.7656C87.9141 21.7656 90.5391 23.9922 90.9375 28.7266H77.6016C78.0469 24.1797 80.8125 21.7656 84.3516 21.7656ZM99.2109 43H103.289V28.6562C103.289 24.5078 105.797 21.7656 109.641 21.7656C113.391 21.7656 115.242 23.9453 115.242 27.9062V43H119.32V27.1797C119.32 21.625 116.227 18.1562 110.883 18.1562C107.18 18.1562 104.695 19.8203 103.383 22.0938H103.289V18.625H99.2109V43ZM134.625 43.4688C140.133 43.4688 144.141 39.8828 144.797 35.2422L144.82 35.0781H140.812L140.766 35.2656C140.086 37.9844 137.953 39.8594 134.625 39.8594C130.406 39.8594 127.5 36.5078 127.5 30.8359V30.8125C127.5 25.2812 130.336 21.7656 134.578 21.7656C138.164 21.7656 140.133 23.9219 140.742 26.3594L140.789 26.5469H144.773L144.75 26.3594C144.234 22.1875 140.648 18.1562 134.578 18.1562C127.805 18.1562 123.328 23.0781 123.328 30.7656V30.7891C123.328 38.5469 127.711 43.4688 134.625 43.4688ZM158.602 43.4688C163.922 43.4688 167.906 40.2812 168.703 36.25L168.75 36.0156H164.742L164.672 36.2266C163.969 38.3125 161.789 39.8594 158.695 39.8594C154.359 39.8594 151.594 36.9297 151.5 31.9141H169.055V30.4141C169.055 23.1016 165 18.1562 158.344 18.1562C151.688 18.1562 147.375 23.3359 147.375 30.8828V30.9062C147.375 38.5703 151.594 43.4688 158.602 43.4688ZM158.32 21.7656C161.883 21.7656 164.508 23.9922 164.906 28.7266H151.57C152.016 24.1797 154.781 21.7656 158.32 21.7656Z" fill="white"/>
<path d="M175.688 43.3281C177.188 43.3281 178.359 42.1562 178.359 40.6562C178.359 39.1562 177.188 37.9844 175.688 37.9844C174.188 37.9844 173.016 39.1562 173.016 40.6562C173.016 42.1562 174.188 43.3281 175.688 43.3281Z" fill="#5C7FFD"/>
<path d="M175.688 43.3281C177.188 43.3281 178.359 42.1562 178.359 40.6562C178.359 39.1562 177.188 37.9844 175.688 37.9844C174.188 37.9844 173.016 39.1562 173.016 40.6562C173.016 42.1562 174.188 43.3281 175.688 43.3281Z" fill="#FA00FF"/>
</svg>
